HIERARCHY
ROOT hip
{
  OFFSET 0 0 0
  CHANNELS 6 Xposition Yposition Zposition Zrotation Yrotation Xrotation
  JOINT abdomen
  {
    OFFSET 0 20.6881 -0.73152
    CHANNELS 3 Zrotation Xrotation Yrotation
    JOINT chest
    {
      OFFSET 0 11.7043 -0.48768
      CHANNELS 3 Zrotation Xrotation Yrotation
      JOINT neck
      {
        OFFSET 0 22.1894 -2.19456
        CHANNELS 3 Zrotation Xrotation Yrotation
        JOINT head
        {
          OFFSET -0.24384 7.07133 1.2192
          CHANNELS 3 Zrotation Xrotation Yrotation
          JOINT leftEye
          {
            OFFSET 4.14528 8.04674 8.04672
            CHANNELS 3 Zrotation Xrotation Yrotation
            End Site
            {
              OFFSET 1 0 0
            }
          }
          JOINT rightEye
          {
            OFFSET -3.6576 8.04674 8.04672
            CHANNELS 3 Zrotation Xrotation Yrotation
            End Site
            {
              OFFSET 1 0 0
            }
          }
        }
      }
      JOINT rCollar
      {
        OFFSET -2.68224 19.2634 -4.8768
        CHANNELS 3 Zrotation Xrotation Yrotation
        JOINT rShldr
        {
          OFFSET -8.77824 -1.95073 1.46304
          CHANNELS 3 Zrotation Xrotation Yrotation
          JOINT rForeArm
          {
            OFFSET -28.1742 -1.7115 0.48768
            CHANNELS 3 Zrotation Xrotation Yrotation
            JOINT rHand
            {
              OFFSET -22.5879 0.773209 7.07136
              CHANNELS 3 Zrotation Xrotation Yrotation
              JOINT rThumb1
              {
                OFFSET -1.2192 -0.487915 3.41376
                CHANNELS 3 Zrotation Xrotation Yrotation
                JOINT rThumb2
                {
                  OFFSET -3.37035 -0.52449 3.41376
                  CHANNELS 3 Zrotation Xrotation Yrotation
                  End Site
                  {
                    OFFSET -1.78271 -1.18214 1.43049
                  }
                }
              }
              JOINT rIndex1
              {
                OFFSET -7.75947 0.938293 5.60832
                CHANNELS 3 Zrotation Xrotation Yrotation
                JOINT rIndex2
                {
                  OFFSET -2.54057 -0.884171 1.56538
                  CHANNELS 3 Zrotation Xrotation Yrotation
                  End Site
                  {
                    OFFSET -1.62519 -0.234802 1.16502
                  }
                }
              }
              JOINT rMid1
              {
                OFFSET -8.24714 1.18213 3.41376
                CHANNELS 3 Zrotation Xrotation Yrotation
                JOINT rMid2
                {
                  OFFSET -3.10165 -0.590103 1.0647
                  CHANNELS 3 Zrotation Xrotation Yrotation
                  End Site
                  {
                    OFFSET -2.48547 -0.328903 0.83742
                  }
                }
              }
              JOINT rRing1
              {
                OFFSET -8.82822 0.546677 1.51678
                CHANNELS 3 Zrotation Xrotation Yrotation
                JOINT rRing2
                {
                  OFFSET -2.60934 -0.819778 -0.0198488
                  CHANNELS 3 Zrotation Xrotation Yrotation
                  End Site
                  {
                    OFFSET -2.33842 -0.294052 0.168128
                  }
                }
              }
              JOINT rPinky1
              {
                OFFSET -8.27202 -0.0477905 -0.4584
                CHANNELS 3 Zrotation Xrotation Yrotation
                JOINT rPinky2
                {
                  OFFSET -1.82734 -0.647385 -0.700984
                  CHANNELS 3 Zrotation Xrotation Yrotation
                  End Site
                  {
                    OFFSET -1.69225 -0.51767 -0.607171
                  }
                }
              }
            }
          }
        }
      }
      JOINT lCollar
      {
        OFFSET 2.68224 19.2634 -4.8768
        CHANNELS 3 Zrotation Xrotation Yrotation
        JOINT lShldr
        {
          OFFSET 8.77824 -1.95073 1.46304
          CHANNELS 3 Zrotation Xrotation Yrotation
          JOINT lForeArm
          {
            OFFSET 28.1742 -1.7115 0.48768
            CHANNELS 3 Zrotation Xrotation Yrotation
            JOINT lHand
            {
              OFFSET 22.5879 0.773209 7.07136
              CHANNELS 3 Zrotation Xrotation Yrotation
              JOINT lThumb1
              {
                OFFSET 1.2192 -0.487915 3.41376
                CHANNELS 3 Zrotation Xrotation Yrotation
                JOINT lThumb2
                {
                  OFFSET 3.37035 -0.52449 3.41376
                  CHANNELS 3 Zrotation Xrotation Yrotation
                  End Site
                  {
                    OFFSET 1.78271 -1.18214 1.43049
                  }
                }
              }
              JOINT lIndex1
              {
                OFFSET 7.75947 0.938293 5.60832
                CHANNELS 3 Zrotation Xrotation Yrotation
                JOINT lIndex2
                {
                  OFFSET 2.54057 -0.884171 1.56538
                  CHANNELS 3 Zrotation Xrotation Yrotation
                  End Site
                  {
                    OFFSET 1.62519 -0.234802 1.16502
                  }
                }
              }
              JOINT lMid1
              {
                OFFSET 8.24714 1.18213 3.41376
                CHANNELS 3 Zrotation Xrotation Yrotation
                JOINT lMid2
                {
                  OFFSET 3.10165 -0.590103 1.0647
                  CHANNELS 3 Zrotation Xrotation Yrotation
                  End Site
                  {
                    OFFSET 2.48547 -0.328903 0.83742
                  }
                }
              }
              JOINT lRing1
              {
                OFFSET 8.82822 0.546677 1.51678
                CHANNELS 3 Zrotation Xrotation Yrotation
                JOINT lRing2
                {
                  OFFSET 2.60934 -0.819778 -0.0198488
                  CHANNELS 3 Zrotation Xrotation Yrotation
                  End Site
                  {
                    OFFSET 2.33842 -0.294052 0.168128
                  }
                }
              }
              JOINT lPinky1
              {
                OFFSET 8.27202 -0.0477905 -0.4584
                CHANNELS 3 Zrotation Xrotation Yrotation
                JOINT lPinky2
                {
                  OFFSET 1.82734 -0.647385 -0.700984
                  CHANNELS 3 Zrotation Xrotation Yrotation
                  End Site
                  {
                    OFFSET 1.69225 -0.51767 -0.607171
                  }
                }
              }
            }
          }
        }
      }
    }
  }
  JOINT rButtock
  {
    OFFSET -8.77824 4.35084 1.2192
    CHANNELS 3 Zrotation Xrotation Yrotation
    JOINT rThigh
    {
      OFFSET 0 -1.70687 -2.19456
      CHANNELS 3 Zrotation Xrotation Yrotation
      JOINT rShin
      {
        OFFSET 0 -36.8199 0.73152
        CHANNELS 3 Zrotation Xrotation Yrotation
        JOINT rFoot
        {
          OFFSET 0.73152 -45.1104 -5.12064
          CHANNELS 3 Zrotation Xrotation Yrotation
          End Site
          {
            OFFSET -1.1221 -3.69964 12.103
          }
        }
      }
    }
  }
  JOINT lButtock
  {
    OFFSET 8.77824 4.35084 1.2192
    CHANNELS 3 Zrotation Xrotation Yrotation
    JOINT lThigh
    {
      OFFSET 0 -1.70687 -2.19456
      CHANNELS 3 Zrotation Xrotation Yrotation
      JOINT lShin
      {
        OFFSET 0 -36.8199 0.73152
        CHANNELS 3 Zrotation Xrotation Yrotation
        JOINT lFoot
        {
          OFFSET -0.73152 -45.1104 -5.12064
          CHANNELS 3 Zrotation Xrotation Yrotation
          End Site
          {
            OFFSET 1.1221 -3.69964 12.103
          }
        }
      }
    }
  }
}
MOTION
Frames:	6
Frame Time:	0.00833333
279.53 84.7978 30.8117 186.92 19.2054 190.448 -13.3458 16.8144 4.40514 -1.12714 -0.618619 1.35443 8.81231 -5.38738 10.4558 -6.42379 3.15454 18.799 -0.0 0.0 0.0 -0.0 0.0 0.0 7.65555e-14 3.63634e-14 4.06856e-14 99.2204 52.4135 -35.1325 -23.6632 -18.481 48.5613 -0.228503 -13.4927 -1.93247 -6.09193e-10 -1.40841e-10 -2.66521e-10 -1.0491e-09 -2.44362e-10 -4.68531e-10 -6.0919e-10 -1.40839e-10 -2.66531e-10 7.73091 5.47488 0.417314 -6.09196e-10 -1.40838e-10 -2.66523e-10 2.90554 0.965183 0.102902 -6.09191e-10 -1.40839e-10 -2.66524e-10 10.2786 0.731801 0.0259123 -6.09195e-10 -1.40838e-10 -2.66517e-10 2.22167 -0.733487 -0.20892 7.63179e-14 3.63902e-14 4.04465e-14 -62.3704 30.361 -9.52974 21.1856 -14.5839 -41.6276 0.000445397 -0.832641 0.11703 -7.49046e-10 -1.25671e-09 -4.06196e-10 -1.2938e-09 -2.1711e-09 -7.02795e-10 -7.49046e-10 -1.25671e-09 -4.06187e-10 -7.73091 5.47488 -0.417314 -7.49039e-10 -1.25671e-09 -4.06193e-10 -2.90554 0.965183 -0.102902 -7.49049e-10 -1.2567e-09 -4.06193e-10 -10.2786 0.731801 -0.0259123 -7.49044e-10 -1.2567e-09 -4.06199e-10 -2.22167 -0.733487 0.20892 -2.03217e-16 0.0 -3.88251e-19 -0.0696368 -10.1433 -4.78106 0.00422371 24.8 0.557479 -1.93024 -14.2674 -5.35347 2.03217e-16 0.0 3.88251e-19 9.27816 -15.4916 10.9775 0.108632 18.6066 -0.341455 1.55848 -9.95034 4.42857
279.661 84.8272 30.0378 186.537 18.761 189.606 -14.8094 17.2749 4.2369 -0.890731 -0.55309 1.30236 8.90541 -5.37113 10.4497 -6.29978 3.30192 18.7891 -0.0 0.0 0.0 -0.0 0.0 0.0 1.6963e-13 1.75384e-13 4.71919e-15 99.3652 51.8616 -35.605 -23.5355 -18.2541 48.1701 -0.215061 -13.0987 -1.87397 -7.67329e-10 -1.49946e-10 2.11021e-10 -1.32864e-09 -2.6209e-10 3.49787e-10 -7.67326e-10 -1.49944e-10 2.1101e-10 7.73091 5.47488 0.417314 -7.67331e-10 -1.49943e-10 2.11016e-10 2.90554 0.965183 0.102902 -7.67324e-10 -1.49943e-10 2.11017e-10 10.2786 0.731801 0.0259123 -7.67329e-10 -1.49942e-10 2.11022e-10 2.22167 -0.733487 -0.20892 1.69387e-13 1.7542e-13 4.49983e-15 -61.1952 30.7254 -11.0677 21.4124 -14.9014 -42.2216 0.0022413 -1.50732 0.21188 -8.09393e-10 -2.20842e-09 -1.11551e-09 -1.39514e-09 -3.81345e-09 -1.92875e-09 -8.09392e-10 -2.20842e-09 -1.11551e-09 -7.73091 5.47488 -0.417314 -8.09387e-10 -2.20841e-09 -1.11551e-09 -2.90554 0.965183 -0.102902 -8.09391e-10 -2.20841e-09 -1.11551e-09 -10.2786 0.731801 -0.0259123 -8.09389e-10 -2.20841e-09 -1.11552e-09 -2.22167 -0.733487 0.20892 -2.03217e-16 0.0 -3.88251e-19 -1.07623 -10.3134 -4.62102 -0.00427726 24.8098 0.520651 -1.92919 -13.9895 -5.37336 2.03217e-16 0.0 3.88251e-19 7.20964 -12.5504 9.08365 0.100106 16.9298 -0.296047 1.39607 -10.006 3.80382
279.481 85.0666 29.5543 185.237 18.4397 189.024 -16.1695 17.5526 4.04117 -0.671553 -0.442261 1.24712 8.91561 -5.37762 10.4287 -6.09964 3.43152 18.7693 -0.0 0.0 0.0 -0.0 0.0 0.0 2.30709e-13 2.44883e-13 -4.5969e-14 99.4462 51.3698 -36.0282 -23.4164 -18.045 47.8131 -0.203007 -12.7311 -1.81958 -1.00673e-09 -1.47829e-10 5.84739e-10 -1.74679e-09 -2.59473e-10 9.90821e-10 -1.00672e-09 -1.47827e-10 5.84726e-10 7.73091 5.47488 0.417314 -1.00673e-09 -1.47826e-10 5.84732e-10 2.90554 0.965183 0.102902 -1.00672e-09 -1.47826e-10 5.84735e-10 10.2786 0.731801 0.0259123 -1.00673e-09 -1.47825e-10 5.84739e-10 2.22167 -0.733487 -0.20892 2.30487e-13 2.4492e-13 -4.61677e-14 -60.0102 30.9516 -12.6477 21.6107 -15.1835 -42.7501 0.0047426 -1.96597 0.276409 -8.04365e-10 -2.52284e-09 -1.3965e-09 -1.38506e-09 -4.35585e-09 -2.41439e-09 -8.04364e-10 -2.52283e-09 -1.3965e-09 -7.73091 5.47488 -0.417314 -8.04361e-10 -2.52283e-09 -1.3965e-09 -2.90554 0.965183 -0.102902 -8.04361e-10 -2.52283e-09 -1.39651e-09 -10.2786 0.731801 -0.0259123 -8.04359e-10 -2.52282e-09 -1.39651e-09 -2.22167 -0.733487 0.20892 -2.03217e-16 0.0 -3.88251e-19 -2.09236 -10.6706 -4.49255 -0.0116979 24.8584 0.490904 -1.85752 -13.8302 -5.11749 2.03217e-16 0.0 3.88251e-19 5.43573 -10.282 7.63872 0.0942336 15.6136 -0.260252 1.26983 -10.0995 3.30603
278.739 85.16 28.7823 182.1 18.2924 188.271 -17.4842 17.5512 3.80658 -0.46199 -0.261909 1.18722 8.80354 -5.40901 10.3892 -5.77265 3.5255 18.7423 -0.0 0.0 0.0 -0.0 0.0 0.0 2.50455e-13 2.07569e-13 -1.27351e-13 99.4594 50.9421 -36.4011 -23.3113 -17.8626 47.5028 -0.193748 -12.4328 -1.77562 -1.44566e-09 -1.354e-10 8.30948e-10 -2.5073e-09 -2.3759e-10 1.41411e-09 -1.44565e-09 -1.354e-10 8.30935e-10 7.73091 5.47488 0.417314 -1.44566e-09 -1.35399e-10 8.30943e-10 2.90554 0.965183 0.102902 -1.44565e-09 -1.35398e-10 8.30945e-10 10.2786 0.731801 0.0259123 -1.44566e-09 -1.35398e-10 8.30949e-10 2.22167 -0.733487 -0.20892 2.50301e-13 2.07592e-13 -1.27526e-13 -58.8363 30.9837 -14.2746 21.7701 -15.4149 -43.1769 0.00581355 -2.11884 0.297928 -7.32026e-10 -1.91182e-09 -1.01187e-09 -1.26109e-09 -3.30129e-09 -1.7497e-09 -7.32026e-10 -1.91182e-09 -1.01187e-09 -7.73091 5.47488 -0.417314 -7.32023e-10 -1.91181e-09 -1.01188e-09 -2.90554 0.965183 -0.102902 -7.32024e-10 -1.91182e-09 -1.01188e-09 -10.2786 0.731801 -0.0259123 -7.32018e-10 -1.91181e-09 -1.01189e-09 -2.22167 -0.733487 0.20892 -2.03217e-16 0.0 -3.88251e-19 -3.22478 -11.3151 -4.43206 -0.0179296 24.9846 0.471558 -1.67462 -13.8647 -4.42151 2.03217e-16 0.0 3.88251e-19 3.77513 -9.01775 6.72257 0.0893656 14.7877 -0.236701 1.19142 -10.2633 2.97117
278.719 85.2319 28.0952 181.53 17.8179 187.822 -18.8536 17.3892 3.55149 -0.246549 -0.0357438 1.1252 8.61425 -5.45251 10.3372 -5.37202 3.59294 18.709 -0.0 0.0 0.0 -0.0 0.0 0.0 2.43879e-13 1.05753e-13 -2.28798e-13 99.4166 50.5714 -36.7234 -23.2197 -17.7056 47.2316 -0.186212 -12.1823 -1.73878 -1.99512e-09 -1.19934e-10 1.01353e-09 -3.45754e-09 -2.09676e-10 1.72921e-09 -1.99512e-09 -1.19936e-10 1.01351e-09 7.73091 5.47488 0.417314 -1.99512e-09 -1.19935e-10 1.01352e-09 2.90554 0.965183 0.102902 -1.99512e-09 -1.19935e-10 1.01352e-09 10.2786 0.731801 0.0259123 -1.99512e-09 -1.19934e-10 1.01353e-09 2.22167 -0.733487 -0.20892 2.43827e-13 1.05753e-13 -2.28944e-13 -57.6436 30.9434 -15.9274 21.9131 -15.6263 -43.5612 0.00591717 -2.14373 0.301431 -5.97642e-10 -6.98046e-10 -2.07309e-10 -1.03135e-09 -1.20645e-09 -3.59171e-10 -5.97644e-10 -6.98041e-10 -2.07305e-10 -7.73091 5.47488 -0.417314 -5.97641e-10 -6.98035e-10 -2.07319e-10 -2.90554 0.965183 -0.102902 -5.97644e-10 -6.98049e-10 -2.0732e-10 -10.2786 0.731801 -0.0259123 -5.97632e-10 -6.9804e-10 -2.07322e-10 -2.22167 -0.733487 0.20892 -2.03217e-16 0.0 -3.88251e-19 -4.52278 -12.1252 -4.43839 -0.0235405 25.1521 0.457862 -1.41219 -14.0026 -3.4344 2.03217e-16 0.0 3.88251e-19 2.05345 -8.30828 6.06929 0.0843297 14.2171 -0.219525 1.1373 -10.4798 2.71777
278.76 85.2778 27.4755 181.128 17.3327 187.444 -20.0787 17.1938 3.28925 -0.0534071 0.199525 1.06261 8.40237 -5.51288 10.2765 -4.97182 3.66723 18.663 -0.0 0.0 0.0 -0.0 0.0 0.0 2.20731e-13 -8.38672e-15 -3.22345e-13 99.3309 50.2544 -37.0059 -23.1331 -17.5592 46.975 -0.177465 -11.899 -1.69713 -2.45577e-09 -9.39278e-11 1.13785e-09 -4.25356e-09 -1.63377e-10 1.94499e-09 -2.45576e-09 -9.39322e-11 1.13784e-09 7.73091 5.47488 0.417314 -2.45577e-09 -9.39311e-11 1.13785e-09 2.90554 0.965183 0.102902 -2.45577e-09 -9.39307e-11 1.13785e-09 10.2786 0.731801 0.0259123 -2.45577e-09 -9.39292e-11 1.13786e-09 2.22167 -0.733487 -0.20892 2.20778e-13 -8.41025e-15 -3.22464e-13 -56.4468 30.8635 -17.588 22.0531 -15.8367 -43.9372 0.00556321 -2.10928 0.296578 -4.0162e-10 7.12203e-10 6.67548e-10 -6.9536e-10 1.22792e-09 1.15299e-09 -4.01623e-10 7.12207e-10 6.67554e-10 -7.73091 5.47488 -0.417314 -4.0162e-10 7.12216e-10 6.67534e-10 -2.90554 0.965183 -0.102902 -4.01627e-10 7.12194e-10 6.67536e-10 -10.2786 0.731801 -0.0259123 -4.01608e-10 7.12204e-10 6.67537e-10 -2.22167 -0.733487 0.20892 -2.03217e-16 0.0 -3.88251e-19 -5.70893 -12.9669 -4.43175 -0.0282462 25.3005 0.445868 -1.13382 -14.1368 -2.41287 2.03217e-16 0.0 3.88251e-19 0.489022 -7.81551 5.58371 0.0794954 13.7861 -0.205522 1.0983 -10.6909 2.52598
